<svg width="121" height="73" viewBox="0 0 121 73" fill="none" xmlns="http://www.w3.org/2000/svg">
<path d="M62.1666 61.6055C48.4501 75.5816 25.9236 75.7965 11.9474 62.0711C11.3386 61.4712 10.7477 60.8534 10.1836 60.2177L11.5266 59.0359C12.0638 59.6358 12.6189 60.2356 13.2009 60.7997C26.4697 73.8268 47.8682 73.6298 60.8953 60.352L62.1666 61.6055Z" fill="#40DDB6"/>
<path d="M64.1539 14.0547L62.775 15.2007C62.0409 14.3233 61.253 13.4637 60.4382 12.6579C47.1694 -0.369165 25.7709 -0.163238 12.7438 13.1056C11.8574 14.0099 11.0069 14.9768 10.2279 15.9707L8.82227 14.8694C9.63702 13.8219 10.5324 12.8101 11.4725 11.8521C25.189 -2.12402 47.7155 -2.3389 61.6917 11.3776C62.5602 12.2282 63.3839 13.1325 64.1539 14.0547Z" fill="#40DDB6"/>
<path d="M111.571 12.7832L110.228 13.9651C109.69 13.3652 109.135 12.7653 108.553 12.2013C96.332 0.212747 77.0734 -0.736306 63.7687 10.0077L62.6406 8.61097C76.6526 -2.70604 96.9229 -1.71222 109.798 10.9209C110.416 11.5298 111.007 12.1475 111.571 12.7832Z" fill="#40DDB6"/>
<path d="M110.273 61.1583C98.3916 73.2632 79.518 75.2777 65.3896 65.9484L66.3745 64.4532C79.7866 73.308 97.7112 71.392 108.992 59.9049C109.879 59.0006 110.729 58.0336 111.508 57.0398L112.914 58.1411C112.099 59.1886 111.213 60.2003 110.273 61.1583Z" fill="#40DDB6"/>
<path d="M5.48242 55.16L5.90323 54.9004L6.73589 56.2434L7.66704 55.6614L7.01344 54.6139L7.43425 54.3542L8.08784 55.4018L9.47561 54.5423L9.79793 55.0616L6.62845 57.0313L5.48242 55.16Z" fill="#37393F"/>
<path d="M6.584 50.048L6.10052 48.8841L6.55714 48.696L7.28236 50.424L3.83533 51.8566L3.60254 51.2925L6.584 50.048Z" fill="#37393F"/>
<path d="M5.22282 45.1322C5.12433 45.4545 4.95422 45.7321 4.70353 45.9559C4.45283 46.1887 4.15737 46.3409 3.79924 46.4215C3.44111 46.5021 3.10088 46.4931 2.78751 46.3857C2.47415 46.2782 2.19659 46.1081 1.97276 45.8574C1.74893 45.6067 1.59672 45.3113 1.52509 44.9711C1.44451 44.6308 1.45347 44.2996 1.55195 43.9772C1.65044 43.6549 1.82055 43.3863 2.06229 43.1535C2.31299 42.9297 2.60845 42.7775 2.96658 42.6969C3.32471 42.6163 3.66494 42.6253 3.98726 42.7327C4.30958 42.8312 4.57818 43.0013 4.80201 43.252C5.02585 43.5027 5.17805 43.7982 5.24968 44.1384C5.33026 44.4786 5.31235 44.8099 5.22282 45.1322ZM4.42597 43.646C4.27377 43.4848 4.08575 43.3684 3.85296 43.3057C3.62017 43.2431 3.37843 43.2431 3.10983 43.3057C2.84123 43.3684 2.6174 43.4759 2.43833 43.6281C2.25927 43.7803 2.13392 43.9593 2.07125 44.1742C2.00857 44.3891 1.99962 44.6129 2.05334 44.8547C2.10706 45.0964 2.20555 45.3023 2.35775 45.4635C2.50996 45.6247 2.69798 45.741 2.92181 45.8037C3.14565 45.8664 3.39634 45.8664 3.66494 45.8037C3.93354 45.741 4.15737 45.6336 4.33644 45.4814C4.51551 45.3292 4.64085 45.1501 4.71248 44.9352C4.78411 44.7204 4.78411 44.4965 4.73039 44.2548C4.67667 44.0131 4.57818 43.8161 4.42597 43.646Z" fill="#37393F"/>
<path d="M4.39042 37.2264L2.93103 38.1396L2.94893 38.6052L4.44414 38.5515L4.46205 39.1603L0.728508 39.2856L0.683742 38.0053C0.674788 37.7188 0.719555 37.4771 0.809088 37.2711C0.898622 37.0652 1.03292 36.913 1.19408 36.8145C1.35524 36.7071 1.54326 36.6533 1.74919 36.6444C1.99093 36.6354 2.21476 36.6981 2.42069 36.8324C2.62661 36.9667 2.76987 37.1816 2.85045 37.4681L4.36356 36.4922L4.39042 37.2264ZM2.4565 38.6231L2.42964 37.9426C2.42069 37.7098 2.35801 37.5397 2.24162 37.4323C2.12523 37.3159 1.96407 37.2711 1.77605 37.2711C1.58803 37.2801 1.43582 37.3428 1.32838 37.4591C1.22094 37.5755 1.17617 37.7546 1.18513 37.9874L1.21199 38.6589L2.4565 38.6231Z" fill="#37393F"/>
<path d="M4.0863 30.9058L3.87142 32.4547L4.58769 32.8308L4.49815 33.4665L0.979492 31.6221L1.07798 30.9237L4.96373 30.1179L4.87419 30.7536L4.0863 30.9058ZM3.56701 31.0043L1.76739 31.3624L3.40585 32.204L3.56701 31.0043Z" fill="#37393F"/>
<path d="M5.41071 26.3391L5.7778 25.1304L6.25232 25.2736L5.70617 27.0643L2.13379 25.9809L2.31286 25.399L5.41071 26.3391Z" fill="#37393F"/>
<path d="M7.49745 21.8803C7.32734 22.0236 7.14827 22.1131 6.96025 22.1489C6.76328 22.1847 6.57526 22.1579 6.37828 22.0594L6.66479 21.4685C6.817 21.5222 6.96025 21.5222 7.1035 21.4685C7.24676 21.4147 7.36315 21.2894 7.45268 21.1103C7.54222 20.9223 7.56908 20.7522 7.52431 20.6C7.4885 20.4478 7.39001 20.3403 7.24676 20.2687C7.13036 20.215 7.02292 20.206 6.92444 20.2329C6.82595 20.2687 6.72746 20.3224 6.63793 20.403C6.55735 20.4836 6.44991 20.6 6.31561 20.7522C6.15445 20.9402 6.0112 21.0924 5.88585 21.1999C5.7605 21.3073 5.6083 21.3789 5.43818 21.4147C5.26807 21.4506 5.0711 21.4147 4.86517 21.3163C4.6682 21.2267 4.52494 21.0924 4.42646 20.9313C4.32797 20.7612 4.2832 20.5731 4.2832 20.3672C4.29216 20.1523 4.34588 19.9374 4.45332 19.7047C4.60552 19.3823 4.8204 19.1496 5.08005 19.0153C5.3397 18.881 5.61725 18.881 5.91271 18.9884L5.61725 19.5972C5.4919 19.5525 5.36656 19.5614 5.2233 19.6241C5.089 19.6868 4.97261 19.8121 4.89203 19.9822C4.8204 20.1434 4.79354 20.2866 4.82936 20.4299C4.86517 20.5731 4.9547 20.6716 5.10691 20.7432C5.21435 20.797 5.31284 20.8059 5.40237 20.7701C5.50086 20.7432 5.59039 20.6806 5.67097 20.6089C5.75155 20.5284 5.85899 20.4209 5.98434 20.2687C6.15445 20.0717 6.2977 19.9195 6.432 19.8121C6.55735 19.7047 6.70956 19.6241 6.88862 19.5883C7.06769 19.5525 7.25571 19.5793 7.47059 19.6868C7.6407 19.7673 7.78396 19.8927 7.8914 20.0538C7.99884 20.215 8.05256 20.412 8.06151 20.6269C8.07046 20.8507 8.01674 21.0745 7.90035 21.3163C7.80186 21.549 7.66756 21.7371 7.49745 21.8803Z" fill="#37393F"/>
<path d="M116.155 18.4866L115.725 18.7373L114.928 17.3674L113.979 17.9225L114.597 18.988L114.167 19.2386L113.549 18.1732L112.134 18.9969L111.83 18.4687L115.062 16.5974L116.155 18.4866Z" fill="#37393F"/>
<path d="M114.91 23.5627L115.358 24.7445L114.901 24.9236L114.229 23.1688L117.712 21.8347L117.927 22.4077L114.91 23.5627Z" fill="#37393F"/>
<path d="M116.128 28.5225C116.235 28.2002 116.414 27.9316 116.665 27.7167C116.916 27.5018 117.229 27.3496 117.587 27.278C117.945 27.2064 118.286 27.2332 118.599 27.3407C118.912 27.4571 119.181 27.6361 119.396 27.8958C119.611 28.1554 119.754 28.4509 119.817 28.7911C119.879 29.1314 119.861 29.4626 119.754 29.7849C119.647 30.0983 119.468 30.3669 119.217 30.5907C118.966 30.8146 118.662 30.9578 118.304 31.0205C117.945 31.0921 117.605 31.0653 117.292 30.9578C116.97 30.8504 116.71 30.6624 116.495 30.4117C116.28 30.152 116.137 29.8566 116.074 29.5074C116.003 29.1672 116.021 28.8359 116.128 28.5225ZM116.88 30.0267C117.032 30.1968 117.211 30.3132 117.444 30.3848C117.677 30.4564 117.919 30.4564 118.187 30.4117C118.456 30.358 118.68 30.2595 118.868 30.1162C119.047 29.973 119.181 29.7939 119.253 29.579C119.324 29.3641 119.333 29.1403 119.288 28.8986C119.244 28.6568 119.145 28.4509 119.002 28.2808C118.859 28.1107 118.671 27.9943 118.447 27.9227C118.223 27.851 117.972 27.851 117.704 27.8958C117.435 27.9495 117.202 28.048 117.023 28.1913C116.844 28.3345 116.71 28.5136 116.638 28.7285C116.567 28.9433 116.549 29.1672 116.594 29.4089C116.638 29.6506 116.737 29.8566 116.88 30.0267Z" fill="#37393F"/>
<path d="M116.728 36.4469L118.214 35.5785V35.1129L116.719 35.1219V34.513L120.452 34.4951L120.461 35.7844C120.461 36.0709 120.416 36.3126 120.318 36.5096C120.219 36.7066 120.085 36.8588 119.915 36.9573C119.745 37.0558 119.557 37.1095 119.351 37.1095C119.109 37.1095 118.885 37.0379 118.688 36.9036C118.492 36.7693 118.348 36.5454 118.277 36.25L116.737 37.1811L116.728 36.4469ZM118.697 35.1039V35.7844C118.697 36.0172 118.76 36.1873 118.876 36.3037C118.993 36.4201 119.145 36.4738 119.342 36.4738C119.539 36.4738 119.682 36.4111 119.799 36.3037C119.906 36.1873 119.96 36.0172 119.96 35.7844V35.1039H118.697Z" fill="#37393F"/>
<path d="M116.844 42.7676L117.103 41.2276L116.396 40.8337L116.504 40.198L119.968 42.1409L119.852 42.8392L115.939 43.5376L116.047 42.9019L116.844 42.7676ZM117.372 42.687L119.181 42.3737L117.569 41.4783L117.372 42.687Z" fill="#37393F"/>
<path d="M115.394 47.2985L114.991 48.4983L114.525 48.3371L115.116 46.5554L118.662 47.7373L118.465 48.3192L115.394 47.2985Z" fill="#37393F"/>
<path d="M113.182 51.6944C113.352 51.5601 113.531 51.4706 113.728 51.4437C113.925 51.4168 114.113 51.4526 114.31 51.5511L114.014 52.1331C113.862 52.0704 113.719 52.0704 113.576 52.1241C113.432 52.1779 113.316 52.2943 113.218 52.4733C113.119 52.6613 113.092 52.8315 113.128 52.9837C113.164 53.1359 113.253 53.2523 113.397 53.3239C113.504 53.3776 113.612 53.3955 113.719 53.3687C113.826 53.3418 113.916 53.2881 114.005 53.2075C114.095 53.1269 114.202 53.0195 114.337 52.8673C114.507 52.6793 114.65 52.536 114.784 52.4286C114.91 52.3211 115.062 52.2584 115.232 52.2226C115.402 52.1868 115.599 52.2316 115.805 52.339C115.993 52.4375 116.136 52.5718 116.235 52.7419C116.333 52.912 116.369 53.1001 116.36 53.3149C116.351 53.5298 116.28 53.7447 116.163 53.9685C116.002 54.2909 115.778 54.5147 115.519 54.64C115.25 54.7654 114.972 54.7654 114.677 54.64L114.99 54.0402C115.116 54.0939 115.25 54.0849 115.393 54.0312C115.536 53.9685 115.644 53.8521 115.733 53.682C115.814 53.5298 115.841 53.3776 115.814 53.2344C115.787 53.0911 115.698 52.9837 115.545 52.912C115.447 52.8583 115.348 52.8494 115.25 52.8762C115.151 52.9031 115.062 52.9568 114.972 53.0284C114.883 53.1001 114.775 53.2165 114.65 53.3597C114.48 53.5477 114.328 53.6999 114.193 53.8074C114.059 53.9148 113.907 53.9864 113.737 54.0223C113.558 54.0581 113.37 54.0133 113.155 53.9059C112.985 53.8163 112.85 53.691 112.752 53.5209C112.645 53.3508 112.6 53.1627 112.591 52.9389C112.591 52.7151 112.653 52.4912 112.77 52.2584C112.868 52.0167 113.012 51.8376 113.182 51.6944Z" fill="#37393F"/>
<path d="M34.2233 28.7022C35.2977 28.7022 36.1124 28.5769 36.6765 28.3351C37.2316 28.0844 37.5987 27.8964 37.7688 27.7711C37.7688 28.0307 37.7151 28.3441 37.6076 28.7022C37.5002 29.0693 37.3032 29.4185 37.0257 29.7677C36.7481 30.1079 36.381 30.4034 35.9333 30.6361C35.4857 30.8689 34.9127 30.9943 34.2233 30.9943C33.3458 30.9943 32.4953 30.8242 31.6805 30.4929C30.8658 30.1616 30.06 29.8035 29.2631 29.4095C28.4663 29.0245 27.6873 28.6664 26.9084 28.3262C26.1295 27.986 25.3416 27.8248 24.5268 27.8248C23.6494 27.8248 22.8704 27.9681 22.2079 28.2456C21.5453 28.5232 20.9813 28.8992 20.5157 29.3558C20.0501 29.8214 19.6741 30.3407 19.3697 30.9316C19.0653 31.5225 18.8235 32.1224 18.6445 32.7402C18.4654 33.349 18.3401 33.9489 18.2774 34.5308C18.2147 35.1128 18.1789 35.6232 18.1789 36.0798C18.1789 36.7065 18.2326 37.19 18.34 37.5481C18.4475 37.9063 18.5191 38.1301 18.5639 38.2375V38.2733C18.1162 38.148 17.7044 37.96 17.3373 37.7272C17.0329 37.5123 16.7643 37.2258 16.5136 36.8587C16.2629 36.4916 16.1465 36.0171 16.1465 35.4441C16.1465 34.5398 16.3435 33.6087 16.7464 32.6417C17.1403 31.6747 17.6954 30.7973 18.4027 30.0005C19.11 29.2036 19.9696 28.55 20.9813 28.0307C21.993 27.5114 23.1122 27.2607 24.3298 27.2607C25.0371 27.2607 25.825 27.3324 26.6846 27.4846C27.5441 27.6368 28.4215 27.7979 29.3079 27.986C30.2032 28.165 31.0717 28.3351 31.9223 28.4873C32.7639 28.6306 33.5339 28.7022 34.2233 28.7022ZM22.1005 45.2122C22.1005 44.9973 22.1631 44.6392 22.2795 44.1378C22.3959 43.6364 22.5571 43.0365 22.763 42.3382C22.9689 41.6398 23.2017 40.8609 23.4703 40.0013C23.7389 39.1418 24.0165 38.2554 24.294 37.3332C23.7121 37.4586 23.2286 37.5213 22.8436 37.5213C22.5839 37.5213 22.3691 37.4765 22.1989 37.3959C22.0288 37.3153 21.8856 37.2168 21.7781 37.1005C21.6707 36.9841 21.5991 36.8766 21.5543 36.7692C21.5095 36.6617 21.4916 36.5812 21.4916 36.5095C21.5543 36.5722 21.6796 36.6438 21.8587 36.7155C22.0378 36.7871 22.2437 36.8319 22.4586 36.8319C22.6914 36.8319 22.9958 36.796 23.3629 36.7155C23.73 36.6438 24.1239 36.5453 24.5537 36.4379C24.7685 35.659 24.9834 34.889 25.1983 34.1279C25.4132 33.358 25.6012 32.6506 25.7624 32.006C25.9235 31.3614 26.0489 30.8063 26.1474 30.3407C26.2458 29.8751 26.2906 29.5438 26.2906 29.3558C26.2906 29.2663 26.2906 29.1947 26.2906 29.132C26.2906 29.0693 26.2817 28.9619 26.2548 28.8097C26.407 28.8544 26.6219 28.9261 26.8994 29.0335C27.177 29.1409 27.4456 29.2663 27.7052 29.4006C27.9649 29.5438 28.1887 29.6781 28.3857 29.8035C28.5827 29.9288 28.6722 30.0273 28.6722 30.09C28.6722 30.4302 28.5289 31.1107 28.2335 32.1224C27.947 33.1341 27.5799 34.3249 27.1501 35.7037C27.7769 35.5336 28.2782 35.3725 28.6632 35.2382C29.0482 35.0949 29.4064 34.9964 29.7287 34.9337C29.7287 34.7636 29.7108 34.6293 29.666 34.5488C29.9436 34.5935 30.2301 34.6383 30.5166 34.6741C30.8031 34.7189 31.0717 34.7726 31.3224 34.8353C31.5731 34.8979 31.77 34.9785 31.9223 35.077C32.0745 35.1755 32.1461 35.2829 32.1461 35.4172C32.1461 35.6142 32.1013 35.838 32.0207 36.0977C31.9312 36.3573 31.8417 36.6259 31.7342 36.9035C31.6268 37.181 31.5373 37.4586 31.4567 37.7451C31.3761 38.0316 31.3582 38.2912 31.3761 38.5509C31.2239 38.5509 31.009 38.5509 30.7315 38.5509C30.4539 38.5509 30.1764 38.5419 29.9078 38.5151C29.6392 38.4972 29.4064 38.4435 29.2004 38.3718C28.9945 38.3002 28.896 38.1749 28.896 38.0047C28.896 37.8794 28.9318 37.7093 29.0124 37.5034C29.084 37.2974 29.1736 37.0826 29.2721 36.8408C29.3706 36.608 29.4601 36.3663 29.5496 36.1335C29.6392 35.9007 29.7018 35.6948 29.7466 35.5247C29.3795 35.6321 28.9856 35.7843 28.5558 35.9723C28.126 36.1693 27.5888 36.3663 26.9442 36.5812C26.6666 37.5302 26.3801 38.4882 26.0936 39.4641C25.8071 40.4401 25.5385 41.3712 25.3057 42.2486C25.073 43.126 24.867 43.9229 24.7059 44.6213C24.5447 45.3196 24.4552 45.8747 24.4283 46.2776C24.3388 46.2597 24.1687 46.206 23.909 46.1165C23.6494 46.0269 23.3897 45.9374 23.1211 45.8389C22.8525 45.7404 22.6197 45.6419 22.4138 45.5345C22.2079 45.4271 22.1005 45.3196 22.1005 45.2122Z" fill="#6B77E5"/>
<path d="M92.7871 42.455C92.9393 41.8999 93.1811 41.0225 93.5124 39.8407C93.8436 38.6588 94.2555 37.3427 94.739 35.8923C95.2224 34.4418 95.7775 32.9466 96.4132 31.4156C97.0489 29.8756 97.7204 28.4789 98.4456 27.2075C99.1619 25.9361 99.9319 24.8976 100.738 24.0828C101.543 23.2681 102.376 22.8562 103.236 22.8562C103.558 22.8562 103.862 22.9636 104.158 23.1785C104.444 23.3934 104.713 23.6262 104.946 23.8858C105.205 24.1902 105.447 24.5305 105.689 24.9155C105.626 24.8976 105.546 24.8707 105.465 24.8528C105.402 24.8349 105.322 24.808 105.241 24.7901C105.152 24.7722 105.071 24.7543 104.982 24.7543C103.889 24.7543 102.851 25.1393 101.884 25.9182C100.917 26.6882 100.012 27.6731 99.1798 28.8639C98.3382 30.0547 97.5861 31.3798 96.9057 32.8302C96.2252 34.2807 95.6343 35.6863 95.115 37.0383C94.5957 38.3902 94.166 39.6168 93.8078 40.7091C93.4497 41.8015 93.199 42.5983 93.0468 43.0907C93.1721 43.3504 93.3064 43.5115 93.4318 43.5742C92.9572 43.6369 92.5185 43.6458 92.1067 43.5921C91.6948 43.5384 91.3367 43.3862 91.0144 43.1445C90.6921 42.8938 90.4324 42.5446 90.2444 42.079C90.0474 41.6134 89.94 41.0315 89.9221 40.3242C89.9042 39.6616 89.8773 38.811 89.8594 37.7904C89.8415 36.7697 89.8146 35.749 89.7967 34.7283C89.7788 33.7076 89.7609 32.7944 89.752 31.9886C89.743 31.1828 89.734 30.6725 89.734 30.4576V29.9383C89.5639 30.4576 89.2685 31.2813 88.8656 32.4184C88.4537 33.5554 87.9523 34.8358 87.3525 36.2504C86.7526 37.665 86.0811 39.1244 85.338 40.6196C84.5948 42.1148 83.8159 43.4847 83.0011 44.7292C82.1864 45.9737 81.3448 46.9944 80.4853 47.7912C79.6257 48.5881 78.7752 48.982 77.9425 48.982C77.6202 48.982 77.3516 48.8656 77.1367 48.6239C76.9218 48.3911 76.7517 48.1225 76.6174 47.8181C76.4652 47.4779 76.3399 47.075 76.2324 46.6273C76.322 46.6721 76.4025 46.6989 76.4921 46.7258C76.6622 46.7706 76.8144 46.7885 76.9397 46.7885C77.9962 46.7885 79.0169 46.4214 80.0018 45.6962C80.9866 44.9709 81.9178 44.0219 82.7863 42.8759C83.6547 41.7298 84.4695 40.4585 85.2216 39.0707C85.9736 37.6829 86.6451 36.331 87.2361 35.0059C87.827 33.6808 88.3284 32.4721 88.7492 31.3798C89.17 30.2875 89.4834 29.4638 89.6982 28.9266C89.6087 28.6669 89.5729 28.4878 89.5729 28.3804C89.8325 28.3804 90.119 28.3894 90.4235 28.4162C90.7368 28.4341 91.0323 28.5237 91.3098 28.6759C91.5874 28.8281 91.8291 29.043 92.0172 29.3384C92.2141 29.6249 92.3037 30.0457 92.3037 30.5829C92.3037 30.8605 92.3126 31.2723 92.3395 31.8095C92.3574 32.3467 92.3753 32.9466 92.3842 33.6002C92.3932 34.2538 92.4111 34.9342 92.429 35.6505C92.4469 36.3578 92.4648 37.0383 92.4738 37.6829C92.4827 38.3276 92.4917 38.9006 92.5096 39.393C92.5185 39.8854 92.5275 40.2525 92.5275 40.4853C92.5544 41.2374 92.6349 41.891 92.7871 42.455Z" fill="#6B77E5"/>
<path d="M62.6498 30.2782C62.4976 34.1281 60.9218 36.7157 59.1043 36.644C57.2867 36.5724 55.9258 33.8685 56.078 30.0186C56.2302 26.1686 59.6683 22.7126 59.6683 22.7126C59.6683 22.7126 62.802 26.4283 62.6498 30.2782Z" fill="#37393F"/>
<path d="M66.9748 29.0067C66.9569 29.159 66.5092 32.7582 64.2709 34.8712C63.2054 35.8829 62.0504 36.626 61.0298 36.9573C59.9375 37.3154 59.0421 37.199 58.5049 36.626C57.4574 35.5248 58.3527 33.0716 60.5731 30.9586C62.8115 28.8456 66.4197 28.5949 66.5808 28.5859L67.0285 28.5591L66.9748 29.0067ZM59.0511 36.1067C59.3734 36.4559 60.0001 36.5007 60.797 36.241C61.7102 35.9456 62.7667 35.2651 63.7516 34.325C65.3363 32.8298 65.9451 30.4124 66.1421 29.3917C65.1214 29.535 62.6682 30.0095 61.0924 31.5047C59.6778 32.8477 58.8004 34.325 58.8004 35.3636C58.8004 35.677 58.8899 35.9277 59.0511 36.1067Z" fill="#37393F"/>
<path d="M59.6686 36.6705C59.3284 36.9749 58.8628 37.1271 58.3256 37.1003C57.0811 37.0376 55.4785 36.0527 54.0549 34.468C51.9956 32.1759 51.8345 28.5588 51.8255 28.4066L51.8076 27.95L52.2553 28.0126C52.4075 28.0305 55.9888 28.5767 58.0481 30.8598C59.4359 32.3998 60.2238 33.9935 60.2238 35.238C60.2417 35.8378 60.0447 36.3392 59.6686 36.6705ZM54.619 33.9576C55.8993 35.3723 57.3318 36.2945 58.3704 36.3482C58.7106 36.3661 58.9792 36.2855 59.1673 36.1154C59.3732 35.9274 59.4806 35.6319 59.4806 35.2469C59.4806 34.1994 58.7375 32.7579 57.5019 31.3701C56.0425 29.7496 53.6431 29.0781 52.6313 28.8542C52.7477 29.8749 53.1596 32.3281 54.619 33.9576Z" fill="#37393F"/>
<path d="M59.7135 28.9081C59.7135 28.7469 59.5881 28.6126 59.418 28.6037C59.2479 28.5947 59.1136 28.729 59.1046 28.8902L58.2988 48.9009C58.2988 48.9099 58.2988 48.9099 58.2988 48.9099C58.2988 49.071 58.4242 49.2053 58.5943 49.2143C58.7644 49.2232 58.8987 49.0889 58.9077 48.9188L59.7135 28.9081C59.7135 28.9171 59.7135 28.9171 59.7135 28.9081Z" fill="#37393F"/>
<path d="M71.5587 34.2C71.5587 34.1732 71.5587 34.1553 71.5497 34.1284C71.5139 33.9672 71.3438 33.8687 71.1827 33.9046C71.0573 33.9314 58.7733 37.0293 58.3525 47.7196C58.3525 47.7285 58.3525 47.7285 58.3525 47.7285C58.3525 47.8897 58.4779 48.024 58.639 48.0329C58.8092 48.0419 58.9435 47.9076 58.9524 47.7375C59.3643 37.4948 71.2006 34.5134 71.317 34.4865C71.4692 34.4597 71.5587 34.3343 71.5587 34.2Z" fill="#37393F"/>
<path d="M67.8784 40.6908C67.8784 40.6819 67.8784 40.664 67.8784 40.6461C67.8515 40.476 67.6993 40.3596 67.5382 40.3864C67.4486 40.3954 58.6027 41.6757 58.3252 48.516V48.525C58.3252 48.6862 58.4505 48.8205 58.6207 48.8294C58.7908 48.8384 58.9251 48.7041 58.934 48.534C59.1847 42.2039 67.5382 40.9952 67.6188 40.9863C67.771 40.9684 67.8784 40.843 67.8784 40.6908Z" fill="#37393F"/>
<path d="M58.9702 47.1908C58.9702 36.9124 47.3935 32.9908 47.2771 32.946C47.116 32.8923 46.9459 32.9819 46.8921 33.143C46.8474 33.3042 46.928 33.4743 47.0891 33.528C47.2055 33.5638 58.7822 37.4854 58.3614 47.728C58.3614 47.7369 58.3614 47.7369 58.3614 47.7369C58.3614 47.8981 58.4867 48.0324 58.6479 48.0414C58.818 48.0503 58.9523 47.916 58.9612 47.7459C58.9702 47.5579 58.9702 47.3699 58.9702 47.1908Z" fill="#37393F"/>
<path d="M58.9339 48.2294C58.9339 41.6398 50.4819 39.7238 50.3924 39.7059C50.2312 39.6701 50.0701 39.7775 50.0342 39.9387C49.9984 40.1088 50.1059 40.261 50.267 40.2968C50.3476 40.3147 58.5489 42.168 58.325 48.516V48.5249C58.325 48.6861 58.4504 48.8204 58.6205 48.8293C58.7906 48.8383 58.9249 48.704 58.9339 48.5339C58.9339 48.4354 58.9339 48.3279 58.9339 48.2294Z" fill="#37393F"/>
<path d="M73.4202 34.2896C73.3754 35.4804 72.3637 36.4115 71.1729 36.3668C70.0089 36.322 69.0957 35.373 69.0957 34.1195C69.1405 32.9287 70.1522 31.9976 71.343 32.0423C72.5069 32.0871 73.4202 33.0361 73.4202 34.209V34.2896ZM71.1997 35.5341C71.9339 35.561 72.5517 34.988 72.5875 34.2538L73.0083 34.2001H72.5875C72.5875 33.4838 72.0234 32.9018 71.3072 32.866C70.573 32.8392 69.9552 33.4122 69.9194 34.2001C69.9194 34.9163 70.4835 35.5073 71.1997 35.5341Z" fill="#37393F"/>
<path d="M49.3451 33.3224C49.3183 33.9044 49.0765 34.4326 48.6468 34.8265C48.226 35.2205 47.6709 35.4175 47.0889 35.3996C45.925 35.3548 45.0117 34.4057 45.0117 33.1523C45.0386 32.5703 45.2803 32.0421 45.7101 31.6481C46.1309 31.2542 46.686 31.0572 47.268 31.0751C48.4319 31.1199 49.3451 32.0689 49.3451 33.2418V33.3224ZM47.1247 34.5669C47.4828 34.5848 47.8231 34.4595 48.0827 34.2177C48.3424 33.976 48.4946 33.6447 48.5125 33.2866L48.9333 33.2328H48.5214C48.5214 32.5166 47.9574 31.9346 47.2411 31.8988C46.883 31.8809 46.5427 32.0062 46.2831 32.248C46.0234 32.4897 45.8712 32.821 45.8533 33.2328C45.8444 33.9491 46.4084 34.54 47.1247 34.5669Z" fill="#37393F"/>
<path d="M69.3199 40.7625C69.2841 41.7295 68.4693 42.4816 67.5023 42.4368C66.5354 42.401 65.7833 41.5862 65.8281 40.6193C65.8639 39.6523 66.6786 38.9002 67.6456 38.945C68.6126 38.9808 69.3557 39.7956 69.3199 40.7625Z" fill="#37393F"/>
<path d="M52.0757 40.0731C52.0399 41.04 51.2252 41.7921 50.2582 41.7474C49.2912 41.7115 48.5392 40.8968 48.5839 39.9298C48.6197 38.9629 49.4345 38.2108 50.4015 38.2556C51.3684 38.2914 52.1115 39.1061 52.0757 40.0731Z" fill="#37393F"/>
</svg>
